<svg width="180" height="48" viewBox="0 0 180 48" xmlns="http://www.w3.org/2000/svg" role="img" aria-label="Smart ServiceHub">
  <defs>
    <linearGradient id="gold" x1="0" y1="0" x2="1" y2="1">
      <stop offset="0%" stop-color="#FFD166"/>
      <stop offset="50%" stop-color="#F59E0B"/>
      <stop offset="100%" stop-color="#D97706"/>
    </linearGradient>
  </defs>
  <rect x="0" y="0" width="48" height="48" rx="12" fill="#0f172a"/>
  <g transform="translate(6,6)">
    <rect x="0" y="0" width="36" height="36" rx="10" fill="url(#gold)"/>
    <path d="M9 24c0 3 2.2 5 6 5h6c3.3 0 6-2.7 6-6 0-2.9-2-5-5-5h-5c-1.3 0-2-0.7-2-1.8 0-1.1.8-2.2 2.4-2.2h6.2" fill="none" stroke="#0f172a" stroke-width="3" stroke-linecap="round"/>
    <g transform="translate(20,8)">
      <rect x="7" y="5" width="3" height="14" rx="1.2" fill="#0f172a"/>
      <path d="M8.5 2 L11 5 L6 5 Z" fill="#0f172a"/>
      <rect x="6.8" y="19.2" width="3.4" height="3.6" rx="1.2" fill="#0f172a"/>
    </g>
  </g>
  <text x="58" y="18" font-family="Inter,Segoe UI,Arial" font-size="16" font-weight="800" fill="#0f172a">Smart</text>
  <text x="58" y="36" font-family="Inter,Segoe UI,Arial" font-size="18" font-weight="900" fill="#0f172a">ServiceHub</text>
</svg>
